HIERARCHY
ROOT hip
{
  OFFSET 0 0 0
  CHANNELS 6 Xposition Yposition Zposition Zrotation Yrotation Xrotation
  JOINT abdomen
  {
    OFFSET 0 20.6881 -0.73152
    CHANNELS 3 Zrotation Xrotation Yrotation
    JOINT chest
    {
      OFFSET 0 11.7043 -0.48768
      CHANNELS 3 Zrotation Xrotation Yrotation
      JOINT neck
      {
        OFFSET 0 22.1894 -2.19456
        CHANNELS 3 Zrotation Xrotation Yrotation
        JOINT head
        {
          OFFSET -0.24384 7.07133 1.2192
          CHANNELS 3 Zrotation Xrotation Yrotation
          JOINT leftEye
          {
            OFFSET 4.14528 8.04674 8.04672
            CHANNELS 3 Zrotation Xrotation Yrotation
            End Site
            {
              OFFSET 1 0 0
            }
          }
          JOINT rightEye
          {
            OFFSET -3.6576 8.04674 8.04672
            CHANNELS 3 Zrotation Xrotation Yrotation
            End Site
            {
              OFFSET 1 0 0
            }
          }
        }
      }
      JOINT rCollar
      {
        OFFSET -2.68224 19.2634 -4.8768
        CHANNELS 3 Zrotation Xrotation Yrotation
        JOINT rShldr
        {
          OFFSET -8.77824 -1.95073 1.46304
          CHANNELS 3 Zrotation Xrotation Yrotation
          JOINT rForeArm
          {
            OFFSET -28.1742 -1.7115 0.48768
            CHANNELS 3 Zrotation Xrotation Yrotation
            JOINT rHand
            {
              OFFSET -22.5879 0.773209 7.07136
              CHANNELS 3 Zrotation Xrotation Yrotation
              JOINT rThumb1
              {
                OFFSET -1.2192 -0.487915 3.41376
                CHANNELS 3 Zrotation Xrotation Yrotation
                JOINT rThumb2
                {
                  OFFSET -3.37035 -0.52449 3.41376
                  CHANNELS 3 Zrotation Xrotation Yrotation
                  End Site
                  {
                    OFFSET -1.78271 -1.18214 1.43049
                  }
                }
              }
              JOINT rIndex1
              {
                OFFSET -7.75947 0.938293 5.60832
                CHANNELS 3 Zrotation Xrotation Yrotation
                JOINT rIndex2
                {
                  OFFSET -2.54057 -0.884171 1.56538
                  CHANNELS 3 Zrotation Xrotation Yrotation
                  End Site
                  {
                    OFFSET -1.62519 -0.234802 1.16502
                  }
                }
              }
              JOINT rMid1
              {
                OFFSET -8.24714 1.18213 3.41376
                CHANNELS 3 Zrotation Xrotation Yrotation
                JOINT rMid2
                {
                  OFFSET -3.10165 -0.590103 1.0647
                  CHANNELS 3 Zrotation Xrotation Yrotation
                  End Site
                  {
                    OFFSET -2.48547 -0.328903 0.83742
                  }
                }
              }
              JOINT rRing1
              {
                OFFSET -8.82822 0.546677 1.51678
                CHANNELS 3 Zrotation Xrotation Yrotation
                JOINT rRing2
                {
                  OFFSET -2.60934 -0.819778 -0.0198488
                  CHANNELS 3 Zrotation Xrotation Yrotation
                  End Site
                  {
                    OFFSET -2.33842 -0.294052 0.168128
                  }
                }
              }
              JOINT rPinky1
              {
                OFFSET -8.27202 -0.0477905 -0.4584
                CHANNELS 3 Zrotation Xrotation Yrotation
                JOINT rPinky2
                {
                  OFFSET -1.82734 -0.647385 -0.700984
                  CHANNELS 3 Zrotation Xrotation Yrotation
                  End Site
                  {
                    OFFSET -1.69225 -0.51767 -0.607171
                  }
                }
              }
            }
          }
        }
      }
      JOINT lCollar
      {
        OFFSET 2.68224 19.2634 -4.8768
        CHANNELS 3 Zrotation Xrotation Yrotation
        JOINT lShldr
        {
          OFFSET 8.77824 -1.95073 1.46304
          CHANNELS 3 Zrotation Xrotation Yrotation
          JOINT lForeArm
          {
            OFFSET 28.1742 -1.7115 0.48768
            CHANNELS 3 Zrotation Xrotation Yrotation
            JOINT lHand
            {
              OFFSET 22.5879 0.773209 7.07136
              CHANNELS 3 Zrotation Xrotation Yrotation
              JOINT lThumb1
              {
                OFFSET 1.2192 -0.487915 3.41376
                CHANNELS 3 Zrotation Xrotation Yrotation
                JOINT lThumb2
                {
                  OFFSET 3.37035 -0.52449 3.41376
                  CHANNELS 3 Zrotation Xrotation Yrotation
                  End Site
                  {
                    OFFSET 1.78271 -1.18214 1.43049
                  }
                }
              }
              JOINT lIndex1
              {
                OFFSET 7.75947 0.938293 5.60832
                CHANNELS 3 Zrotation Xrotation Yrotation
                JOINT lIndex2
                {
                  OFFSET 2.54057 -0.884171 1.56538
                  CHANNELS 3 Zrotation Xrotation Yrotation
                  End Site
                  {
                    OFFSET 1.62519 -0.234802 1.16502
                  }
                }
              }
              JOINT lMid1
              {
                OFFSET 8.24714 1.18213 3.41376
                CHANNELS 3 Zrotation Xrotation Yrotation
                JOINT lMid2
                {
                  OFFSET 3.10165 -0.590103 1.0647
                  CHANNELS 3 Zrotation Xrotation Yrotation
                  End Site
                  {
                    OFFSET 2.48547 -0.328903 0.83742
                  }
                }
              }
              JOINT lRing1
              {
                OFFSET 8.82822 0.546677 1.51678
                CHANNELS 3 Zrotation Xrotation Yrotation
                JOINT lRing2
                {
                  OFFSET 2.60934 -0.819778 -0.0198488
                  CHANNELS 3 Zrotation Xrotation Yrotation
                  End Site
                  {
                    OFFSET 2.33842 -0.294052 0.168128
                  }
                }
              }
              JOINT lPinky1
              {
                OFFSET 8.27202 -0.0477905 -0.4584
                CHANNELS 3 Zrotation Xrotation Yrotation
                JOINT lPinky2
                {
                  OFFSET 1.82734 -0.647385 -0.700984
                  CHANNELS 3 Zrotation Xrotation Yrotation
                  End Site
                  {
                    OFFSET 1.69225 -0.51767 -0.607171
                  }
                }
              }
            }
          }
        }
      }
    }
  }
  JOINT rButtock
  {
    OFFSET -8.77824 4.35084 1.2192
    CHANNELS 3 Zrotation Xrotation Yrotation
    JOINT rThigh
    {
      OFFSET 0 -1.70687 -2.19456
      CHANNELS 3 Zrotation Xrotation Yrotation
      JOINT rShin
      {
        OFFSET 0 -36.8199 0.73152
        CHANNELS 3 Zrotation Xrotation Yrotation
        JOINT rFoot
        {
          OFFSET 0.73152 -45.1104 -5.12064
          CHANNELS 3 Zrotation Xrotation Yrotation
          End Site
          {
            OFFSET -1.1221 -3.69964 12.103
          }
        }
      }
    }
  }
  JOINT lButtock
  {
    OFFSET 8.77824 4.35084 1.2192
    CHANNELS 3 Zrotation Xrotation Yrotation
    JOINT lThigh
    {
      OFFSET 0 -1.70687 -2.19456
      CHANNELS 3 Zrotation Xrotation Yrotation
      JOINT lShin
      {
        OFFSET 0 -36.8199 0.73152
        CHANNELS 3 Zrotation Xrotation Yrotation
        JOINT lFoot
        {
          OFFSET -0.73152 -45.1104 -5.12064
          CHANNELS 3 Zrotation Xrotation Yrotation
          End Site
          {
            OFFSET 1.1221 -3.69964 12.103
          }
        }
      }
    }
  }
}
MOTION
Frames:	9
Frame Time:	0.00833333
-43.0795 84.5737 -86.4864 241.53 88.1372 244.571 7.59632 -1.40388 3.31401 2.60609 -4.66261 1.28848 -8.5218 -10.5576 -5.18593 9.5622 12.2541 -6.9846 -0.0 0.0 0.0 -0.0 0.0 0.0 1.20108e-13 5.5282e-13 5.49143e-14 63.1551 37.0656 21.3144 -28.3872 -34.0427 73.7697 -0.0297544 4.91785 0.692878 4.3677e-09 -1.82867e-09 -5.64244e-09 7.5269e-09 -3.16391e-09 -9.77228e-09 4.3677e-09 -1.82866e-09 -5.64245e-09 7.73091 5.47488 0.417314 4.3677e-09 -1.82866e-09 -5.64243e-09 2.90554 0.965183 0.102902 4.36771e-09 -1.82866e-09 -5.64244e-09 10.2786 0.731801 0.0259123 4.3677e-09 -1.82866e-09 -5.64243e-09 2.22167 -0.733487 -0.20892 1.20032e-13 5.5282e-13 5.48149e-14 -47.0026 54.3532 -41.2421 28.0564 -30.9595 -68.7826 4.48156 -49.9133 9.61206 4.85404e-09 -3.57057e-09 3.27187e-09 8.22679e-09 -6.32565e-09 5.82276e-09 4.85403e-09 -3.57058e-09 3.27188e-09 -7.73091 5.47488 -0.417314 4.85404e-09 -3.57057e-09 3.27187e-09 -2.90554 0.965183 -0.102902 4.85403e-09 -3.57057e-09 3.27187e-09 -10.2786 0.731801 -0.0259123 4.85404e-09 -3.57057e-09 3.27186e-09 -2.22167 -0.733487 0.20892 -2.03217e-16 0.0 -3.88251e-19 -2.73508 -2.22908 -1.70547 0.00954909 10.2032 0.210539 -3.67015 -10.8901 -18.5047 2.03217e-16 0.0 3.88251e-19 9.06935 -8.85858 -13.3289 0.136483 19.2681 -0.498253 3.97747 -14.8906 9.35575
-43.0563 84.5902 -86.4872 240.362 88.2245 243.447 7.51772 -1.48911 3.13416 2.65161 -4.65942 1.23709 -8.2863 -10.6816 -5.09668 9.27253 12.3541 -6.87903 -0.0 0.0 0.0 -0.0 0.0 0.0 1.625e-13 8.28062e-13 5.4651e-14 62.5918 36.9284 22.282 -28.3741 -33.8291 73.4218 -0.0307997 5.0071 0.705512 4.34279e-09 -1.66883e-09 -5.53607e-09 7.48425e-09 -2.88801e-09 -9.58952e-09 4.34279e-09 -1.66882e-09 -5.53608e-09 7.73091 5.47488 0.417314 4.34279e-09 -1.66882e-09 -5.53606e-09 2.90554 0.965183 0.102902 4.3428e-09 -1.66882e-09 -5.53606e-09 10.2786 0.731801 0.0259123 4.34279e-09 -1.66881e-09 -5.53606e-09 2.22167 -0.733487 -0.20892 1.62412e-13 8.28064e-13 5.45004e-14 -47.0691 53.7832 -41.4677 28.0295 -30.7962 -68.529 4.45286 -49.8043 9.57458 5.02947e-09 -3.81367e-09 3.5684e-09 8.51815e-09 -6.74574e-09 6.33895e-09 5.02947e-09 -3.81367e-09 3.56842e-09 -7.73091 5.47488 -0.417314 5.02947e-09 -3.81367e-09 3.5684e-09 -2.90554 0.965183 -0.102902 5.02947e-09 -3.81367e-09 3.5684e-09 -10.2786 0.731801 -0.0259123 5.02947e-09 -3.81366e-09 3.56839e-09 -2.22167 -0.733487 0.20892 -2.03217e-16 0.0 -3.88251e-19 -2.77289 -2.27159 -1.73969 0.0095458 10.1826 0.209996 -3.67294 -10.8864 -18.5035 2.03217e-16 0.0 3.88251e-19 9.03889 -8.8574 -13.3294 0.136098 19.1504 -0.496898 3.99854 -14.8157 9.44908
-43.0414 84.6056 -86.4881 238.614 88.275 241.754 7.3483 -1.57682 2.73947 2.77674 -4.64267 1.12712 -7.82922 -10.8738 -4.88617 8.73811 12.5049 -6.60387 -0.0 0.0 0.0 -0.0 0.0 0.0 1.92822e-13 1.02009e-12 4.91992e-14 61.9819 37.0432 23.374 -28.3586 -33.6086 73.0669 -0.033603 5.23441 0.737711 3.71192e-09 -1.23048e-09 -4.64766e-09 6.39723e-09 -2.13032e-09 -8.05255e-09 3.71192e-09 -1.23047e-09 -4.64767e-09 7.73091 5.47488 0.417314 3.71192e-09 -1.23047e-09 -4.64766e-09 2.90554 0.965183 0.102902 3.71193e-09 -1.23047e-09 -4.64766e-09 10.2786 0.731801 0.0259123 3.71192e-09 -1.23047e-09 -4.64765e-09 2.22167 -0.733487 -0.20892 1.92734e-13 1.0201e-12 4.89507e-14 -47.6381 53.051 -41.1883 28.0055 -30.6555 -68.3131 4.39456 -49.5801 9.49817 4.56469e-09 -3.61364e-09 3.48604e-09 7.72257e-09 -6.37769e-09 6.17754e-09 4.56468e-09 -3.61364e-09 3.48605e-09 -7.73091 5.47488 -0.417314 4.56469e-09 -3.61364e-09 3.48604e-09 -2.90554 0.965183 -0.102902 4.56469e-09 -3.61364e-09 3.48604e-09 -10.2786 0.731801 -0.0259123 4.56469e-09 -3.61364e-09 3.48603e-09 -2.22167 -0.733487 0.20892 -2.03217e-16 0.0 -3.88251e-19 -2.83124 -2.30772 -1.7865 0.00955328 10.1545 0.209361 -3.67948 -10.8943 -18.4943 2.03217e-16 0.0 3.88251e-19 8.99028 -8.83682 -13.3422 0.135602 18.9903 -0.494915 4.0192 -14.7263 9.54902
-43.0332 84.6185 -86.4868 236.146 88.265 239.352 7.15691 -1.65356 2.28334 2.9199 -4.62277 1.00043 -7.34538 -11.0526 -4.65145 8.18635 12.6341 -6.29077 -0.0 0.0 0.0 -0.0 0.0 0.0 2.06268e-13 1.09984e-12 4.15732e-14 61.3245 37.2213 24.5305 -28.3405 -33.37 72.6793 -0.0367358 5.46736 0.770746 2.80575e-09 -7.13237e-10 -3.43515e-09 4.83567e-09 -1.23602e-09 -5.95393e-09 2.80575e-09 -7.13237e-10 -3.43516e-09 7.73091 5.47488 0.417314 2.80575e-09 -7.13237e-10 -3.43515e-09 2.90554 0.965183 0.102902 2.80576e-09 -7.13237e-10 -3.43515e-09 10.2786 0.731801 0.0259123 2.80574e-09 -7.13234e-10 -3.43514e-09 2.22167 -0.733487 -0.20892 2.06186e-13 1.09985e-12 4.12269e-14 -48.3318 52.2507 -40.8137 27.9787 -30.4957 -68.0566 4.33906 -49.3632 9.42509 3.76225e-09 -3.13504e-09 3.13132e-09 6.35632e-09 -5.51826e-09 5.5343e-09 3.76224e-09 -3.13504e-09 3.13134e-09 -7.73091 5.47488 -0.417314 3.76225e-09 -3.13504e-09 3.13132e-09 -2.90554 0.965183 -0.102902 3.76225e-09 -3.13504e-09 3.13132e-09 -10.2786 0.731801 -0.0259123 3.76225e-09 -3.13504e-09 3.13132e-09 -2.22167 -0.733487 0.20892 -2.03217e-16 0.0 -3.88251e-19 -2.89548 -2.33151 -1.84521 0.00958103 10.1264 0.208902 -3.68784 -10.9104 -18.4802 2.03217e-16 0.0 3.88251e-19 8.93575 -8.81211 -13.3609 0.135115 18.8311 -0.492942 4.03628 -14.6358 9.63999
-43.0272 84.6224 -86.4851 233.116 88.2001 236.386 7.01364 -1.70589 1.91921 3.01938 -4.61015 0.898912 -7.03189 -11.1361 -4.48991 7.84719 12.6699 -6.07187 -0.0 0.0 0.0 -0.0 0.0 0.0 1.98035e-13 1.03825e-12 3.47873e-14 60.6368 37.28 25.68 -28.3191 -33.1011 72.2343 -0.0382517 5.57355 0.785816 1.95493e-09 -3.16732e-10 -2.35646e-09 3.36936e-09 -5.50258e-10 -4.0862e-09 1.95493e-09 -3.16734e-10 -2.35646e-09 7.73091 5.47488 0.417314 1.95493e-09 -3.16735e-10 -2.35646e-09 2.90554 0.965183 0.102902 1.95493e-09 -3.16736e-10 -2.35646e-09 10.2786 0.731801 0.0259123 1.95492e-09 -3.16734e-10 -2.35645e-09 2.22167 -0.733487 -0.20892 1.97957e-13 1.03826e-12 3.43897e-14 -48.8061 51.482 -40.7206 27.9412 -30.2725 -67.6838 4.31709 -49.2765 9.39607 2.92473e-09 -2.54243e-09 2.61079e-09 4.93565e-09 -4.46424e-09 4.60498e-09 2.92472e-09 -2.54243e-09 2.61081e-09 -7.73091 5.47488 -0.417314 2.92473e-09 -2.54243e-09 2.61079e-09 -2.90554 0.965183 -0.102902 2.92473e-09 -2.54243e-09 2.6108e-09 -10.2786 0.731801 -0.0259123 2.92473e-09 -2.54243e-09 2.61079e-09 -2.22167 -0.733487 0.20892 -2.03217e-16 0.0 -3.88251e-19 -2.95093 -2.33704 -1.91515 0.00963928 10.1054 0.208885 -3.69609 -10.9314 -18.4645 2.03217e-16 0.0 3.88251e-19 8.88755 -8.79851 -13.379 0.134747 18.716 -0.491607 4.04676 -14.5578 9.70649
-43.0165 84.6243 -86.4876 229.88 88.1112 233.197 6.9401 -1.727 1.66277 3.06341 -4.6086 0.826934 -6.94915 -11.0743 -4.42512 7.8064 12.5575 -5.97788 -0.0 0.0 0.0 -0.0 0.0 0.0 1.53252e-13 7.00498e-13 3.17574e-14 59.8866 37.2112 26.8392 -28.2912 -32.7914 71.7262 -0.037681 5.52564 0.779025 1.17454e-09 -9.25346e-11 -1.47154e-09 2.02438e-09 -1.62081e-10 -2.55266e-09 1.17454e-09 -9.25375e-11 -1.47155e-09 7.73091 5.47488 0.417314 1.17454e-09 -9.25387e-11 -1.47154e-09 2.90554 0.965183 0.102902 1.17455e-09 -9.254e-11 -1.47154e-09 10.2786 0.731801 0.0259123 1.17453e-09 -9.25392e-11 -1.47153e-09 2.22167 -0.733487 -0.20892 1.53172e-13 7.00508e-13 3.13804e-14 -49.0669 50.7435 -40.9529 27.8845 -29.955 -67.1622 4.3358 -49.3497 9.42069 2.01009e-09 -1.75358e-09 1.82091e-09 3.39182e-09 -3.07409e-09 3.21021e-09 2.01009e-09 -1.75358e-09 1.82093e-09 -7.73091 5.47488 -0.417314 2.0101e-09 -1.75358e-09 1.82091e-09 -2.90554 0.965183 -0.102902 2.0101e-09 -1.75358e-09 1.82092e-09 -10.2786 0.731801 -0.0259123 2.0101e-09 -1.75358e-09 1.82091e-09 -2.22167 -0.733487 0.20892 -2.03217e-16 0.0 -3.88251e-19 -2.99361 -2.30933 -2.01157 0.00975288 10.0955 0.209608 -3.70541 -10.9653 -18.4432 2.03217e-16 0.0 3.88251e-19 8.84702 -8.80049 -13.4039 0.134527 18.6665 -0.491435 4.05113 -14.4961 9.74716
-43.003 84.6271 -86.4979 226.783 88.0381 230.113 6.89864 -1.72513 1.44059 3.0833 -4.61223 0.764424 -6.9902 -10.9204 -4.40608 7.93408 12.3472 -5.94008 -0.0 0.0 0.0 -0.0 0.0 0.0 7.90111e-14 1.4445e-13 3.01718e-14 59.0817 37.0976 28.0306 -28.255 -32.4462 71.1719 -0.0360067 5.39159 0.760023 3.12599e-10 6.5268e-11 -5.56892e-10 5.38767e-10 1.11596e-10 -9.66616e-10 3.12604e-10 6.52647e-11 -5.56898e-10 7.73091 5.47488 0.417314 3.12602e-10 6.52625e-11 -5.56896e-10 2.90554 0.965183 0.102902 3.12606e-10 6.52608e-11 -5.56892e-10 10.2786 0.731801 0.0259123 3.12593e-10 6.52607e-11 -5.56884e-10 2.22167 -0.733487 -0.20892 7.89285e-14 1.44459e-13 2.98581e-14 -49.2788 49.9921 -41.3164 27.8089 -29.5659 -66.543 4.37918 -49.5184 9.47768 8.97887e-10 -7.22772e-10 7.48839e-10 1.51831e-09 -1.2631e-09 1.32279e-09 8.9788e-10 -7.22772e-10 7.48855e-10 -7.73091 5.47488 -0.417314 8.97888e-10 -7.22769e-10 7.48837e-10 -2.90554 0.965183 -0.102902 8.97888e-10 -7.22772e-10 7.4884e-10 -10.2786 0.731801 -0.0259123 8.97888e-10 -7.22773e-10 7.48835e-10 -2.22167 -0.733487 0.20892 -2.03217e-16 0.0 -3.88251e-19 -3.03118 -2.25602 -2.12967 0.0099094 10.0921 0.210854 -3.71624 -11.0109 -18.4163 2.03217e-16 0.0 3.88251e-19 8.80826 -8.80977 -13.4359 0.134388 18.6562 -0.491968 4.05074 -14.4434 9.76938
-42.9896 84.6323 -86.5139 224.062 88.0101 227.371 6.87111 -1.70949 1.27252 3.08186 -4.61696 0.716589 -7.10204 -10.747 -4.4185 8.13741 12.1249 -5.94157 -0.0 0.0 0.0 -0.0 0.0 0.0 3.45111e-15 -3.69972e-13 2.52037e-14 58.317 36.9016 29.1813 -28.2117 -32.0767 70.5809 -0.0332857 5.18193 0.730302 -5.50841e-10 1.93279e-10 3.54762e-10 -9.49623e-10 3.33806e-10 6.14291e-10 -5.50835e-10 1.93276e-10 3.54755e-10 7.73091 5.47488 0.417314 -5.50837e-10 1.93273e-10 3.54757e-10 2.90554 0.965183 0.102902 -5.50833e-10 1.93271e-10 3.54762e-10 10.2786 0.731801 0.0259123 -5.50846e-10 1.9327e-10 3.54772e-10 2.22167 -0.733487 -0.20892 3.36987e-15 -3.69964e-13 2.49611e-14 -49.3602 49.2677 -41.8054 27.7198 -29.1403 -65.8753 4.44274 -49.7637 9.56108 -2.26991e-10 3.30714e-10 -3.62821e-10 -3.75341e-10 5.86766e-10 -6.33313e-10 -2.26998e-10 3.30714e-10 -3.62807e-10 -7.73091 5.47488 -0.417314 -2.2699e-10 3.30716e-10 -3.62824e-10 -2.90554 0.965183 -0.102902 -2.2699e-10 3.30714e-10 -3.62823e-10 -10.2786 0.731801 -0.0259123 -2.26993e-10 3.30713e-10 -3.62828e-10 -2.22167 -0.733487 0.20892 -2.03217e-16 0.0 -3.88251e-19 -3.06649 -2.20505 -2.23873 0.0100634 10.0901 0.212112 -3.72555 -11.0511 -18.3923 2.03217e-16 0.0 3.88251e-19 8.77263 -8.82252 -13.4584 0.134299 18.6566 -0.492356 4.04392 -14.3963 9.77076
-42.9759 84.6394 -86.5301 221.87 88.0331 225.137 6.83912 -1.68932 1.17837 3.06195 -4.61874 0.68864 -7.2317 -10.6272 -4.44804 8.32361 11.9765 -5.96533 -0.0 0.0 0.0 -0.0 0.0 0.0 -4.5289e-14 -5.82841e-13 1.20265e-14 57.6904 36.5899 30.2179 -28.1632 -31.6943 69.9617 -0.0296247 4.90715 0.691364 -1.33573e-09 3.28103e-10 1.2307e-09 -2.30296e-09 5.6758e-10 2.13243e-09 -1.33572e-09 3.28099e-10 1.23069e-09 7.73091 5.47488 0.417314 -1.33572e-09 3.28096e-10 1.23069e-09 2.90554 0.965183 0.102902 -1.33572e-09 3.28094e-10 1.2307e-09 10.2786 0.731801 0.0259123 -1.33573e-09 3.28093e-10 1.23071e-09 2.22167 -0.733487 -0.20892 -4.53598e-14 -5.82832e-13 1.18277e-14 -49.227 48.6092 -42.4148 27.6259 -28.7164 -65.2039 4.52207 -50.0667 9.66495 -1.17963e-09 1.18759e-09 -1.27146e-09 -1.97956e-09 2.09352e-09 -2.23414e-09 -1.17964e-09 1.18759e-09 -1.27145e-09 -7.73091 5.47488 -0.417314 -1.17963e-09 1.18759e-09 -1.27146e-09 -2.90554 0.965183 -0.102902 -1.17963e-09 1.18759e-09 -1.27146e-09 -10.2786 0.731801 -0.0259123 -1.17964e-09 1.18759e-09 -1.27147e-09 -2.22167 -0.733487 0.20892 -2.03217e-16 0.0 -3.88251e-19 -3.10271 -2.18439 -2.30803 0.0101696 10.0843 0.212871 -3.73035 -11.0688 -18.38 2.03217e-16 0.0 3.88251e-19 8.74152 -8.83491 -13.4549 0.134227 18.639 -0.491748 4.02902 -14.3512 9.74889
